<svg width="108" height="26" viewBox="0 0 108 26" fill="none" xmlns="http://www.w3.org/2000/svg">
<g clip-path="url(#clip0_333_987)">
<g clip-path="url(#clip1_333_987)">
<g clip-path="url(#clip2_333_987)">
<mask id="mask0_333_987" style="mask-type:luminance" maskUnits="userSpaceOnUse" x="0" y="3" width="108" height="19">
<path d="M107.85 3.75H0V21.1451H107.85V3.75Z" fill="white"/>
</mask>
<g mask="url(#mask0_333_987)">
<path d="M12.0913 3.75474L12.0884 17.5442H10.6638V3.75317L12.0913 3.75474ZM20.3405 16.733C19.5724 17.26 18.6835 17.558 17.768 17.5954C16.8526 17.6328 15.9445 17.4082 15.1401 16.9454C14.3357 16.4827 13.6647 15.7989 13.1983 14.9666C12.7318 14.1342 12.4874 13.1842 12.4906 12.2171C12.4938 11.2501 12.7447 10.302 13.2167 9.4731C13.6885 8.6442 14.3641 7.96552 15.1716 7.5087C15.9791 7.05194 16.8886 6.83413 17.8038 6.87834C18.719 6.92254 19.6058 7.22713 20.3705 7.75988C21.1385 7.23347 22.027 6.93601 22.942 6.89896C23.857 6.8619 24.7645 7.08663 25.5684 7.54935C26.3723 8.0121 27.0428 8.69557 27.5089 9.52763C27.975 10.3596 28.2194 11.3091 28.2162 12.2756C28.213 13.2422 27.9622 14.1899 27.4906 15.0184C27.019 15.8469 26.344 16.5254 25.5369 16.9822C24.7299 17.4389 23.821 17.6569 22.9062 17.613C21.9914 17.5691 21.1049 17.2651 20.3405 16.733ZM21.485 8.81767C22.2129 9.7458 22.6503 10.9364 22.6503 12.2362C22.6503 13.5564 22.1994 14.7644 21.4504 15.6989C22.0055 15.9983 22.6239 16.1426 23.2468 16.1181C23.8696 16.0937 24.4762 15.9013 25.0087 15.5593C25.5412 15.2174 25.9818 14.7371 26.2887 14.1644C26.5955 13.5918 26.7584 12.9457 26.7617 12.2878C26.765 11.6299 26.6086 10.982 26.3074 10.406C26.0064 9.82995 25.5706 9.34485 25.0415 8.99693C24.5125 8.649 23.9079 8.44987 23.2853 8.41852C22.6628 8.3871 22.0429 8.52457 21.485 8.81767ZM20.3569 14.7945C20.9354 14.0938 21.2537 13.1956 21.2528 12.2662C21.2537 11.3368 20.9354 10.4386 20.3569 9.73793C19.7782 10.4385 19.4594 11.3366 19.4594 12.2662C19.4594 13.1957 19.7782 14.0939 20.3569 14.7945ZM19.238 8.82082C18.6809 8.52697 18.0619 8.38853 17.4398 8.41845C16.8178 8.44845 16.2133 8.64593 15.6839 8.99205C15.1545 9.33825 14.7179 9.82162 14.4154 10.3962C14.1129 10.9708 13.9547 11.6175 13.9558 12.2749C13.957 12.9322 14.1175 13.5783 14.4219 14.1517C14.7264 14.7251 15.1647 15.2068 15.6953 15.5509C16.2259 15.895 16.8311 16.0901 17.4533 16.1177C18.0754 16.1452 18.694 16.0043 19.25 15.7084C18.4795 14.7429 18.0576 13.5207 18.0591 12.2583C18.0591 10.9507 18.5025 9.7521 19.238 8.82082ZM89.0078 3.75158L89.0033 17.5378H87.5783V3.75158H89.0078ZM43.8476 6.88862V3.75L45.2767 3.75158V6.88862H43.8476ZM45.2767 7.37562L45.2752 17.5473L43.8491 17.5393V7.37562H45.2767ZM28.6091 11.1166C28.6106 10.5158 28.702 9.9972 28.8623 9.54817C29.3072 8.2959 30.2718 7.5954 31.2589 7.2175C34.0466 6.14863 35.7363 8.6358 35.7513 8.63265C35.7617 8.6295 37.047 6.47594 39.6968 7.03725C41.2817 7.37246 42.1369 8.38125 42.5189 9.53393C42.6912 10.0525 42.7676 10.5996 42.7691 11.1262L42.7661 17.5426L41.3071 17.5378L41.3027 11.0914C41.3012 10.5632 41.0135 9.69675 40.7394 9.3489C40.5284 9.07005 40.2622 8.8431 39.9595 8.68388C39.6568 8.52465 39.3249 8.43705 38.9868 8.42708C38.0266 8.40023 36.4373 9.0501 36.4388 11.0961L36.4403 17.5393L34.9724 17.541L34.9739 11.0914C34.9739 9.55447 33.7036 8.35275 32.4753 8.43975C31.7608 8.49038 31.289 8.56943 30.7152 9.23033C30.2239 9.79643 30.1355 10.489 30.1145 11.123L30.1085 17.5393H28.6166L28.6091 11.1166ZM46.5094 17.5426L46.5169 11.0945C46.5275 10.9633 46.478 10.3087 46.7312 9.56077C47.1311 8.38282 48.1527 6.97085 50.3801 6.97559C52.7768 6.98191 53.764 8.49825 54.1475 9.69518C54.2508 10.0162 54.3032 10.9174 54.3062 11.0977L54.3107 17.5442H52.8697L52.8787 11.1198C52.8727 7.55745 47.9894 7.53532 47.9849 11.0977L47.9924 17.5442H46.5094V17.5426ZM65.2307 12.2377C65.2307 12.3358 65.2142 14.8071 65.1947 15.6135C65.1648 16.7931 64.9356 17.6485 64.5731 18.349C62.9374 21.5113 59.895 21.3737 58.442 20.8678C56.0139 20.0219 55.5196 18.1687 55.3398 17.756L56.8962 17.7639C57.2018 18.2794 57.8968 19.7862 60.1751 19.6534C63.6354 19.4526 63.6893 16.0847 63.6968 16.0768C62.8574 16.9402 61.761 17.4706 60.5934 17.578C59.4259 17.6854 58.259 17.3631 57.2909 16.6659C56.3228 15.9687 55.6129 14.9395 55.2817 13.7528C54.9505 12.5661 55.0183 11.295 55.4737 10.1551C55.9292 9.01522 56.7442 8.07667 57.7805 7.49875C58.8167 6.92082 60.0104 6.73903 61.1591 6.98423C62.3079 7.22944 63.341 7.88655 64.0831 8.84408C64.8251 9.8016 65.2306 11.0006 65.2307 12.2377ZM60.1931 16.091C61.1613 16.091 62.0898 15.6851 62.7744 14.9624C63.459 14.2398 63.8436 13.2597 63.8436 12.2377C63.8436 11.2157 63.459 10.2356 62.7744 9.513C62.0898 8.79037 61.1613 8.3844 60.1931 8.3844C59.2249 8.3844 58.2965 8.79037 57.6119 9.513C56.9273 10.2356 56.5426 11.2157 56.5426 12.2377C56.5426 13.2597 56.9273 14.2398 57.6119 14.9624C58.2965 15.6851 59.2249 16.091 60.1931 16.091ZM1.41705 8.49668C2.00201 7.86413 2.72607 7.39412 3.52478 7.12848C4.32348 6.86284 5.17202 6.80983 5.99483 6.97416C6.81764 7.13849 7.58918 7.51507 8.24078 8.07037C8.8923 8.6256 9.40365 9.34238 9.72923 10.1568C10.0549 10.9712 10.1845 11.8579 10.1069 12.7381C10.0292 13.6182 9.74655 14.4643 9.2841 15.2012C8.82158 15.9382 8.1936 16.5429 7.45611 16.9615C6.7186 17.3803 5.89444 17.5999 5.05704 17.6011C2.2514 17.6011 0.0119835 15.1613 0.0119835 12.2014L0 3.75317H1.41705V8.49668ZM5.087 16.1211C6.05516 16.1211 6.98368 15.7151 7.6683 14.9925C8.3529 14.2698 8.7375 13.2897 8.7375 12.2677C8.7375 11.2458 8.3529 10.2657 7.6683 9.54308C6.98368 8.82045 6.05516 8.41448 5.087 8.41448C4.11883 8.41448 3.19032 8.82045 2.50572 9.54308C1.82113 10.2657 1.43652 11.2458 1.43652 12.2677C1.43652 13.2897 1.82113 14.2698 2.50572 14.9925C3.19032 15.7151 4.11883 16.1211 5.087 16.1211ZM74.6932 8.4951V3.75158H76.11L76.098 12.1998C76.098 15.1613 73.8588 17.5979 71.0532 17.5979C70.2145 17.5983 69.3888 17.3795 68.6497 16.9612C67.9106 16.5429 67.2811 15.9379 66.8174 15.2003C66.3536 14.4627 66.07 13.6154 65.9919 12.734C65.9138 11.8526 66.0436 10.9645 66.3698 10.1489C66.6959 9.3333 67.2082 8.61562 67.861 8.05988C68.5138 7.50413 69.2867 7.12756 70.1109 6.96379C70.9351 6.80003 71.7849 6.85417 72.5844 7.12136C73.384 7.38855 74.1084 7.86053 74.6932 8.4951ZM71.0232 16.1195C71.5089 16.1298 71.9917 16.0376 72.4433 15.8485C72.8948 15.6594 73.3061 15.3771 73.653 15.0181C74 14.6591 74.2755 14.2306 74.4636 13.7578C74.6516 13.285 74.7485 12.7774 74.7484 12.2646C74.7483 11.7517 74.6512 11.2442 74.463 10.7714C74.2747 10.2987 73.999 9.87038 73.6519 9.51158C73.3048 9.1527 72.8935 8.87055 72.4418 8.68162C71.9902 8.4927 71.5074 8.40083 71.0217 8.41133C70.0661 8.43195 69.1564 8.84715 68.4875 9.56783C67.8188 10.2886 67.4443 11.2573 67.4444 12.2662C67.4446 13.275 67.8195 14.2436 68.4886 14.964C69.1576 15.6845 70.0676 16.0993 71.0232 16.1195ZM86.5717 12.2061H86.5837L86.5807 17.5473H85.155V15.9566C84.3382 16.8536 83.2515 17.4232 82.0815 17.5677C80.9108 17.7122 79.7288 17.4228 78.7388 16.7489C77.748 16.0751 77.01 15.0587 76.6515 13.8739C76.2923 12.689 76.335 11.4093 76.7715 10.2538C77.208 9.0984 78.0112 8.13908 79.044 7.54013C80.0768 6.9411 81.2753 6.7397 82.4333 6.97038C83.5913 7.20106 84.6375 7.84942 85.392 8.80463C86.1473 9.75975 86.5642 10.9621 86.5717 12.2061ZM81.5025 16.1243C82.4707 16.1243 83.3992 15.7183 84.084 14.9956C84.7688 14.273 85.1535 13.2929 85.1535 12.2709C85.1535 11.249 84.7688 10.2689 84.084 9.54623C83.3992 8.8236 82.4707 8.41763 81.5025 8.41763C80.5342 8.41763 79.6057 8.8236 78.9217 9.54623C78.237 10.2689 77.8522 11.249 77.8522 12.2709C77.8522 13.2929 78.237 14.273 78.9217 14.9956C79.6057 15.7183 80.5342 16.1243 81.5025 16.1243ZM99.6743 12.2614C99.6743 12.6457 99.6143 13.0615 99.6172 13.0615H91.0462C91.2142 13.9319 91.662 14.7143 92.3138 15.2761C92.9662 15.838 93.7815 16.1449 94.623 16.1448C96.0555 16.1448 97.2788 15.215 97.9125 13.9643H99.4102C99.0045 15.242 98.1585 16.3115 97.0395 16.9602C95.9205 17.6089 94.611 17.7892 93.372 17.4653C92.133 17.1413 91.0545 16.3369 90.3518 15.212C89.649 14.087 89.373 12.724 89.5785 11.3942C89.7848 10.0643 90.4575 8.86493 91.4625 8.03475C92.4682 7.20449 93.7327 6.80422 95.0055 6.91352C96.2775 7.02283 97.4648 7.63373 98.3295 8.62463C99.195 9.61553 99.675 10.9139 99.6743 12.2614ZM91.0298 11.6147H98.22C98.067 10.7255 97.6237 9.92107 96.9668 9.34177C96.3098 8.76248 95.481 8.44515 94.6245 8.44515C93.7688 8.44515 92.94 8.76248 92.283 9.34177C91.6253 9.92107 91.182 10.7255 91.0298 11.6147ZM101.574 6.72102L101.547 13.0679H100.143V6.7226L101.574 6.72102ZM101.866 14.347L103.357 14.328C103.357 14.328 103.451 14.9779 103.598 15.2419C103.73 15.4791 104.757 16.5559 105.855 15.623C106.797 14.8229 106.186 13.6418 106.141 13.588C105.793 13.1277 105.29 12.8282 104.737 12.7531C103.728 12.5745 102.935 11.8203 102.716 11.6068C102.026 10.9317 101.9 9.07695 102.607 8.1219C103.711 6.63089 105.947 6.24825 107.17 8.15512C107.341 8.42077 107.586 8.922 107.608 9.39322L106.256 9.38843C106.256 9.38843 106.06 8.8983 105.882 8.72752C105.882 8.72752 104.944 7.62705 103.867 8.75595C103.464 9.17812 103.417 10.0035 103.63 10.3783C103.63 10.3783 103.903 10.9396 104.716 11.1831C105.481 11.4124 106.953 11.7886 107.471 12.8433C108.018 13.958 107.986 15.3732 107.263 16.2571C106.621 17.0413 104.563 18.6699 102.504 16.2555C102.092 15.7716 101.968 14.9937 101.866 14.347Z" fill="white"/>
</g>
</g>
</g>
</g>
<defs>
<clipPath id="clip0_333_987">
<rect width="108" height="25.5" fill="white"/>
</clipPath>
<clipPath id="clip1_333_987">
<rect width="108" height="25.5" fill="white"/>
</clipPath>
<clipPath id="clip2_333_987">
<rect width="108" height="25.5" fill="white"/>
</clipPath>
</defs>
</svg>
