<svg width="97" height="26" viewBox="0 0 97 26" fill="none" xmlns="http://www.w3.org/2000/svg">
<g clip-path="url(#clip0_333_979)">
<g clip-path="url(#clip1_333_979)">
<g clip-path="url(#clip2_333_979)">
<path d="M96.7327 11.5752V9.87772H94.62V7.23871L94.5487 7.26055L92.5642 7.86637L92.5252 7.87822V9.8778H89.3932V8.76382C89.3932 8.2452 89.5095 7.84822 89.7382 7.58355C89.9655 7.32199 90.291 7.18903 90.7065 7.18903C91.0042 7.18903 91.3132 7.25915 91.6245 7.39744L91.7025 7.43218V5.64445L91.6657 5.63101C91.3755 5.52699 90.981 5.47461 90.492 5.47461C89.8762 5.47461 89.316 5.60841 88.8277 5.87359C88.3387 6.13915 87.9547 6.51824 87.6855 7.00023C87.417 7.48166 87.2812 8.03767 87.2812 8.65305V9.87772H85.8097V11.5752H87.2812V18.7266H89.3932V11.5752H92.5252V16.1198C92.5252 17.9915 93.4102 18.94 95.1547 18.94C95.442 18.94 95.7435 18.9064 96.0517 18.8407C96.3652 18.7733 96.579 18.706 96.705 18.6341L96.7327 18.6177V16.9045L96.6465 16.9612C96.5325 17.0374 96.3892 17.0996 96.222 17.146C96.054 17.1932 95.9137 17.2168 95.805 17.2168C95.3962 17.2168 95.094 17.1068 94.9057 16.8899C94.716 16.6711 94.62 16.2883 94.62 15.7529V11.5752H96.7327ZM81.0937 17.217C80.3272 17.217 79.7227 16.9634 79.2967 16.4639C78.8677 15.9618 78.651 15.246 78.651 14.3365C78.651 13.3982 78.8677 12.6639 79.2967 12.1529C79.7227 11.6453 80.3212 11.3878 81.0765 11.3878C81.8085 11.3878 82.3912 11.6338 82.809 12.1194C83.229 12.6076 83.442 13.3361 83.442 14.2853C83.442 15.2462 83.2417 15.9843 82.8465 16.4781C82.4542 16.9681 81.8647 17.217 81.0937 17.217ZM81.1875 9.66457C79.725 9.66457 78.5632 10.0921 77.7352 10.9354C76.9072 11.7787 76.488 12.9457 76.488 14.4044C76.488 15.7899 76.8975 16.9043 77.7052 17.7162C78.5137 18.5284 79.6132 18.9397 80.9737 18.9397C82.3912 18.9397 83.5297 18.5062 84.3577 17.6513C85.185 16.7973 85.6042 15.6413 85.6042 14.2166C85.6042 12.8096 85.2112 11.6868 84.4342 10.8803C83.658 10.0735 82.5652 9.66457 81.1875 9.66457ZM73.0826 9.66457C72.0877 9.66457 71.2648 9.91845 70.6362 10.419C70.0038 10.9225 69.683 11.583 69.683 12.3821C69.683 12.7975 69.7522 13.1666 69.8885 13.4796C70.0256 13.7936 70.2378 14.0701 70.5196 14.3021C70.7994 14.5323 71.2311 14.7733 71.8033 15.0187C72.2844 15.2161 72.6431 15.3832 72.8709 15.5148C73.0937 15.6439 73.2518 15.7736 73.341 15.8999C73.4278 16.0235 73.4718 16.1927 73.4718 16.4015C73.4718 16.996 73.0256 17.2852 72.1074 17.2852C71.7669 17.2852 71.3784 17.2143 70.9528 17.0744C70.5303 16.9367 70.1316 16.735 69.7704 16.4763L69.6828 16.4135V18.4423L69.715 18.4572C70.0138 18.5948 70.3905 18.7109 70.8346 18.8022C71.2779 18.8936 71.6805 18.9401 72.0304 18.9401C73.1099 18.9401 73.9792 18.685 74.6136 18.1815C75.252 17.6744 75.5752 16.9984 75.5752 16.1716C75.5752 15.5752 75.4012 15.0637 75.0577 14.6511C74.7171 14.242 74.1253 13.8663 73.2999 13.5343C72.6424 13.271 72.2212 13.0524 72.0474 12.8846C71.8799 12.7225 71.7948 12.4933 71.7948 12.203C71.7948 11.9456 71.8998 11.7394 72.1154 11.5725C72.3326 11.4047 72.6349 11.3194 73.0142 11.3194C73.366 11.3194 73.7261 11.3749 74.0841 11.4836C74.4419 11.5922 74.7561 11.7378 75.0187 11.9158L75.105 11.9746V10.0502L75.072 10.036C74.8296 9.93255 74.5105 9.8439 74.1228 9.77197C73.737 9.70057 73.387 9.66457 73.0826 9.66457ZM64.1772 17.217C63.4109 17.217 62.8063 16.9634 62.3805 16.4639C61.9518 15.9618 61.7351 15.2462 61.7351 14.3365C61.7351 13.3982 61.9521 12.6639 62.3809 12.1529C62.8068 11.6453 63.4053 11.3878 64.1603 11.3878C64.8923 11.3878 65.4753 11.6338 65.8929 12.1194C66.3126 12.6076 66.5256 13.3361 66.5256 14.2853C66.5256 15.2462 66.3252 15.9843 65.9303 16.4781C65.538 16.9681 64.9485 17.217 64.1772 17.217ZM64.2714 9.66457C62.8086 9.66457 61.6469 10.0921 60.8191 10.9354C59.9914 11.7787 59.5715 12.9457 59.5715 14.4044C59.5715 15.7905 59.9814 16.9043 60.7894 17.7162C61.5975 18.5284 62.697 18.9397 64.0575 18.9397C65.4749 18.9397 66.6136 18.5062 67.4415 17.6513C68.2691 16.7973 68.6886 15.6413 68.6886 14.2166C68.6886 12.8096 68.295 11.6868 67.5183 10.8803C66.7413 10.0735 65.6487 9.66457 64.2714 9.66457ZM56.3656 11.4101V9.87772H54.2794V18.7264H56.3656V14.2C56.3656 13.4303 56.5405 12.7979 56.8857 12.3203C57.2265 11.8484 57.6805 11.6093 58.2349 11.6093C58.4229 11.6093 58.6338 11.6402 58.8622 11.7013C59.0883 11.7622 59.2521 11.8282 59.3487 11.8976L59.4363 11.9611V9.86257L59.4026 9.8481C59.2083 9.76575 58.9335 9.7242 58.5857 9.7242C58.0614 9.7242 57.5922 9.89227 57.1904 10.2232C56.8377 10.514 56.5827 10.9129 56.3878 11.4101H56.3656ZM50.5434 9.66457C49.5863 9.66457 48.7326 9.86932 48.0065 10.273C47.2788 10.6775 46.7161 11.2552 46.3332 11.9896C45.9521 12.7223 45.7585 13.5781 45.7585 14.5326C45.7585 15.3687 45.9462 16.1359 46.317 16.8121C46.6881 17.4895 47.2134 18.0194 47.8782 18.3869C48.5421 18.754 49.3094 18.9401 50.1589 18.9401C51.1504 18.9401 51.9969 18.7423 52.6755 18.3523L52.703 18.3366V16.4296L52.6153 16.4935C52.3079 16.7169 51.9643 16.8953 51.5946 17.0237C51.2259 17.1521 50.8897 17.217 50.595 17.217C49.7763 17.217 49.1192 16.9615 48.6422 16.4576C48.1641 15.9531 47.9217 15.2447 47.9217 14.3533C47.9217 13.4562 48.1746 12.7296 48.6727 12.1934C49.1694 11.6589 49.8277 11.3878 50.6294 11.3878C51.3151 11.3878 51.9833 11.6194 52.6155 12.077L52.703 12.1403V10.131L52.6747 10.1152C52.4368 9.98227 52.1124 9.87255 51.7095 9.78937C51.3084 9.70635 50.9161 9.66457 50.5434 9.66457ZM44.3217 9.8778H42.2355V18.7264H44.3217V9.8778ZM43.2999 6.10824C42.9566 6.10824 42.6571 6.22486 42.411 6.45596C42.164 6.68771 42.0387 6.9795 42.0387 7.32386C42.0387 7.66282 42.1625 7.94925 42.4072 8.17485C42.6504 8.39977 42.9508 8.51377 43.3 8.51377C43.6492 8.51377 43.9507 8.39977 44.1968 8.17522C44.4444 7.94925 44.57 7.6629 44.57 7.32386C44.57 6.99154 44.4478 6.70274 44.207 6.4653C43.9664 6.22831 43.6611 6.10824 43.2999 6.10824ZM38.0947 9.22492V18.7264H40.2238V6.37911H37.2771L33.5316 15.5503L29.8968 6.37911H26.8301V18.7263H28.8309V9.22402H28.8996L32.7378 18.7264H34.2477L38.026 9.22492H38.0947Z" fill="white"/>
<path d="M9.81413 12.0418H0V2.25H9.81413V12.0418Z" fill="white"/>
<path d="M20.6865 12.0418H10.8726V2.25H20.6865V12.0418Z" fill="white"/>
<path d="M9.81383 22.8572H0V13.0654H9.81383V22.8572Z" fill="white"/>
<path d="M20.6865 22.8572H10.8726V13.0654H20.6865V22.8572Z" fill="white"/>
</g>
</g>
</g>
<defs>
<clipPath id="clip0_333_979">
<rect width="96.75" height="25.5" fill="white"/>
</clipPath>
<clipPath id="clip1_333_979">
<rect width="96.75" height="25.5" fill="white"/>
</clipPath>
<clipPath id="clip2_333_979">
<rect width="96.75" height="25.5" fill="white"/>
</clipPath>
</defs>
</svg>
